<svg width="16" height="16" viewBox="0 0 16 16" fill="none" xmlns="http://www.w3.org/2000/svg">
<path d="M11.1925 8.32035C11.1867 7.32958 11.6356 6.58286 12.5421 6.03227C12.0351 5.3059 11.268 4.90639 10.2569 4.8294C9.29956 4.75385 8.25213 5.38725 7.86861 5.38725C7.46329 5.38725 6.53644 4.85555 5.80716 4.85555C4.30211 4.87879 2.70264 6.05552 2.70264 8.44964C2.70264 9.15713 2.83193 9.88786 3.09052 10.6404C3.43627 11.6312 4.68273 14.0587 5.98294 14.0195C6.66283 14.0035 7.14369 13.5372 8.02841 13.5372C8.88698 13.5372 9.33153 14.0195 10.0899 14.0195C11.4017 14.0006 12.529 11.7939 12.8573 10.8002C11.0981 9.97067 11.1925 8.3712 11.1925 8.32035ZM9.66566 3.88947C10.4022 3.01491 10.3354 2.21881 10.3136 1.93262C9.66275 1.97039 8.91023 2.37571 8.48167 2.874C8.00952 3.40861 7.73205 4.06961 7.79161 4.81487C8.49474 4.86862 9.13686 4.50689 9.66566 3.88947Z" fill="#313131"/>
</svg>
