<svg width="16" height="16" viewBox="0 0 16 16" fill="none" xmlns="http://www.w3.org/2000/svg">
<path d="M13.7574 6.76227H13.2581V6.73654H7.67959V9.2159H11.1826C10.6716 10.6592 9.2983 11.6953 7.67959 11.6953C5.62575 11.6953 3.96056 10.0301 3.96056 7.97622C3.96056 5.92239 5.62575 4.25719 7.67959 4.25719C8.62764 4.25719 9.49014 4.61484 10.1469 5.19903L11.9001 3.44582C10.793 2.4141 9.31225 1.77783 7.67959 1.77783C4.25653 1.77783 1.4812 4.55316 1.4812 7.97622C1.4812 11.3993 4.25653 14.1746 7.67959 14.1746C11.1027 14.1746 13.878 11.3993 13.878 7.97622C13.878 7.56062 13.8352 7.15494 13.7574 6.76227Z" fill="#FFC107"/>
<path d="M2.19482 5.09118L4.2313 6.58468C4.78234 5.22042 6.11685 4.25719 7.67854 4.25719C8.62658 4.25719 9.48909 4.61484 10.1458 5.19903L11.899 3.44582C10.792 2.4141 9.31119 1.77783 7.67854 1.77783C5.29774 1.77783 3.23305 3.12195 2.19482 5.09118Z" fill="#FF3D00"/>
<path d="M7.67876 14.1749C9.27981 14.1749 10.7346 13.5622 11.8345 12.5658L9.91607 10.9424C9.27285 11.4316 8.48686 11.6962 7.67876 11.6955C6.06656 11.6955 4.69765 10.6675 4.18194 9.23291L2.16064 10.7903C3.18648 12.7976 5.26976 14.1749 7.67876 14.1749Z" fill="#4CAF50"/>
<path d="M13.7563 6.76205H13.257V6.73633H7.67847V9.21568H11.1815C10.937 9.90259 10.4967 10.5028 9.91485 10.9422L9.91578 10.9416L11.8342 12.565C11.6984 12.6883 13.8769 11.0752 13.8769 7.97601C13.8769 7.5604 13.8341 7.15472 13.7563 6.76205Z" fill="#1976D2"/>
</svg>
