<svg width="270" height="55" viewBox="0 0 270 55" fill="none" xmlns="http://www.w3.org/2000/svg">
<mask id="mask0_713_3022" style="mask-type:luminance" maskUnits="userSpaceOnUse" x="5" y="5" width="265" height="50">
<path d="M269.28 5.1333H5.04004V54.2666H269.28V5.1333Z" fill="white"/>
</mask>
<g mask="url(#mask0_713_3022)">
<path d="M33.9075 32.3185H31.2722V29.5942H33.9075V32.3185Z" fill="#112F59"/>
<path d="M37.2797 32.3185H34.6472V29.5942H37.2797V32.3185Z" fill="#112F59"/>
<path d="M33.9075 35.7214H31.2722V33H33.9075V35.7214Z" fill="#112F59"/>
<path d="M37.2797 35.7214H34.6472V33H37.2797V35.7214Z" fill="#112F59"/>
<mask id="mask1_713_3022" style="mask-type:luminance" maskUnits="userSpaceOnUse" x="5" y="41" width="76" height="3">
<path d="M5.40002 41.0669H80.5641V43.7768H5.40002V41.0669Z" fill="white"/>
</mask>
<g mask="url(#mask1_713_3022)">
<path d="M80.5613 43.7624H5.40002V41.127H80.5613V43.7624Z" fill="#112F59"/>
</g>
<path d="M34.276 20.4014L48.0066 37.9555H46.1335L34.276 22.8964V20.4014Z" fill="#D3D2D2"/>
<path d="M47.4778 12.1372L61.2084 29.6914H59.3353L47.4778 14.6351V12.1372Z" fill="#D3D2D2"/>
<path d="M36.2757 16.3053L34.276 13.7759V18.8319L49.3819 37.9558H53.3757L36.2757 16.3053Z" fill="#112F59"/>
<path d="M15.1791 37.9558H19.1728L34.276 18.8319V13.7759L15.1791 37.9558Z" fill="#18427B"/>
<mask id="mask2_713_3022" style="mask-type:luminance" maskUnits="userSpaceOnUse" x="38" y="5" width="10" height="15">
<path d="M38.88 5.5H47.52V19.0667H38.88V5.5Z" fill="white"/>
</mask>
<g mask="url(#mask2_713_3022)">
<path d="M38.9307 16.1504L40.9275 18.6769L47.3316 10.5701V5.51416L38.9307 16.1504Z" fill="#18427B"/>
</g>
<mask id="mask3_713_3022" style="mask-type:luminance" maskUnits="userSpaceOnUse" x="46" y="5" width="21" height="26">
<path d="M46.8 5.5H66.9601V30.0667H46.8V5.5Z" fill="white"/>
</mask>
<g mask="url(#mask3_713_3022)">
<path d="M61.577 23.5496V16.961H58.5845V19.7597L49.3285 8.04359L47.3317 5.51416V10.5701L62.4348 29.6912H66.4285L61.577 23.5496Z" fill="#112F59"/>
</g>
<mask id="mask4_713_3022" style="mask-type:luminance" maskUnits="userSpaceOnUse" x="79" y="14" width="190" height="41">
<path d="M79.2001 14.6665H268.878V54.0316H79.2001V14.6665Z" fill="white"/>
</mask>
<g mask="url(#mask4_713_3022)">
<mask id="mask5_713_3022" style="mask-type:luminance" maskUnits="userSpaceOnUse" x="79" y="14" width="191" height="41">
<path d="M269.28 14.6665H79.2001V54.2665H269.28V14.6665Z" fill="white"/>
</mask>
<g mask="url(#mask5_713_3022)">
<path d="M90.0962 43.1123C89.6237 43.0493 88.389 43.0207 86.3949 43.0207H85.9224V26.1425H82.9524C82.0749 26.1425 81.5518 26.1884 81.3887 26.28C81.2312 26.3717 81.1074 26.4519 81.0174 26.5207L80.9724 26.5092V22.6019L81.0174 22.5561C81.3465 22.6649 82.2352 22.7165 83.6837 22.7165H93.0887C93.9662 22.7165 94.4837 22.6707 94.6412 22.579C94.7987 22.4873 94.9224 22.4071 95.0124 22.3384L95.0574 22.3498V26.2571L95.0124 26.303C94.6805 26.197 93.7918 26.1425 92.3462 26.1425H90.0962V43.1123Z" fill="black"/>
<path d="M101.475 22.6593C102.48 22.6994 103.087 22.7166 103.298 22.7166H104.367C104.898 22.7166 105.326 22.6794 105.649 22.6021L105.627 43.0208H101.475V22.6593Z" fill="black"/>
<path d="M118.046 43.1125C117.565 43.0494 116.64 43.0208 115.267 43.0208H114.075V22.6593C114.71 22.6994 115.413 22.7166 116.178 22.7166C116.949 22.7166 117.497 22.6794 117.821 22.6021L122.85 31.3104L127.698 22.6021C128.013 22.6794 128.621 22.7166 129.521 22.7166C130.421 22.7166 131.189 22.6994 131.827 22.6593V43.0208H130.635C129.262 43.0208 128.334 43.0494 127.856 43.1125V29.4312L122.962 38.3687L118.046 30.1531V43.1125Z" fill="black"/>
<path d="M139.925 43.0205C139.984 42.6767 140.015 42.2986 140.015 41.8861V22.7163H143.008L150.95 35.4465V23.759C150.95 23.2033 150.9 22.8538 150.804 22.7163H154.854C154.8 23.1288 154.775 23.5814 154.775 24.0684V43.0205H151.659L143.84 30.7944V43.0205H139.925Z" fill="black"/>
<path d="M166.937 43.1125C165.975 43.0494 164.836 43.0208 163.517 43.0208H163.033V22.6479C163.655 22.6937 164.097 22.7166 164.361 22.7166H164.968C165.756 22.7166 166.411 22.6794 166.937 22.6021V30.7375H173.98V22.6479C174.804 22.6937 175.611 22.7166 176.398 22.7166C177.186 22.7166 177.675 22.6794 177.872 22.6021V43.1125C177.391 43.0494 176.443 43.0208 175.026 43.0208H173.98V34.3927H166.937V43.1125Z" fill="black"/>
<path d="M187.51 43.1469C186.655 43.061 185.654 43.0209 184.506 43.0209H183.314L189.839 24.4126C190.123 23.5818 190.266 23.0949 190.266 22.9574C190.266 22.8199 190.261 22.7368 190.255 22.7053L190.266 22.6709C190.919 22.7024 191.608 22.7167 192.336 22.7167C192.936 22.7167 193.656 22.711 194.496 22.6938L194.508 22.7167C194.491 22.7626 194.485 22.8199 194.485 22.8886C194.485 23.0805 194.634 23.5962 194.935 24.4355L201.584 43.0667C201.381 43.0581 201.145 43.0553 200.875 43.0553C200.875 43.0553 200.616 43.0438 200.099 43.0209C199.851 43.0209 199.626 43.0209 199.424 43.0209H197.106L195.7 38.6209H188.928L187.51 43.1469ZM194.53 34.9657L192.269 27.8615L190.064 34.9657H194.53Z" fill="black"/>
<path d="M213.917 43.1123C213.444 43.0493 212.21 43.0207 210.216 43.0207H209.743V26.1425H206.773C205.896 26.1425 205.373 26.1884 205.209 26.28C205.052 26.3717 204.928 26.4519 204.838 26.5207L204.793 26.5092V22.6019L204.838 22.5561C205.167 22.6649 206.056 22.7165 207.504 22.7165H216.909C217.787 22.7165 218.304 22.6707 218.462 22.579C218.619 22.4873 218.743 22.4071 218.833 22.3384L218.878 22.3498V26.2571L218.833 26.303C218.501 26.197 217.613 26.1425 216.167 26.1425H213.917V43.1123Z" fill="black"/>
<path d="M231.281 35.1259C230.98 35.1488 230.657 35.1603 230.314 35.1603C229.976 35.1603 229.473 35.1345 228.806 35.08V43.0207H224.835V22.6134C226.236 22.43 227.954 22.3384 229.987 22.3384C232.769 22.3384 234.839 22.8626 236.197 23.9082C237.562 24.948 238.245 26.555 238.245 28.7321C238.245 30.4222 237.621 31.8688 236.377 33.0748C235.964 33.4587 235.494 33.791 234.971 34.0717L238.02 40.6373C238.619 41.9894 239.08 42.7972 239.404 43.055L239.325 43.1238C238.357 42.9634 236.833 42.972 234.757 43.1467L231.281 35.1259ZM230.28 25.9363C229.768 25.9363 229.279 25.9649 228.806 26.0165V31.8488C229.293 31.9175 229.867 31.9519 230.527 31.9519C231.186 31.9519 231.742 31.8946 232.192 31.78C232.642 31.6655 233.031 31.4879 233.362 31.2415C234.074 30.7001 234.431 29.8894 234.431 28.8123C234.431 27.7353 234.06 26.9761 233.317 26.5321C232.626 26.1368 231.613 25.9363 230.28 25.9363Z" fill="black"/>
<path d="M247.076 40.6144C246.167 39.7293 245.45 38.6665 244.927 37.429C244.401 36.1858 244.139 34.8222 244.139 33.3384C244.139 31.8574 244.381 30.4566 244.871 29.1332C245.366 27.8126 246.066 26.6467 246.974 25.6384C247.88 24.63 248.98 23.828 250.271 23.2321C251.559 22.6363 253.004 22.3384 254.602 22.3384C257.361 22.3384 259.681 23.2264 261.566 24.9967C263.582 26.8931 264.592 29.4483 264.592 32.6623C264.592 35.7733 263.551 38.3629 261.476 40.4311C260.199 41.7001 258.677 42.5738 256.908 43.055C256.036 43.2842 255.021 43.3988 253.859 43.3988C252.695 43.3988 251.503 43.1524 250.282 42.6655C249.058 42.1785 247.99 41.4938 247.076 40.6144ZM248.313 33.1321C248.313 34.0803 248.465 34.9511 248.774 35.7446C249.081 36.541 249.508 37.2199 250.057 37.7842C251.227 38.9845 252.729 39.5832 254.568 39.5832C256.315 39.5832 257.721 39.0103 258.787 37.8644C259.858 36.6728 260.396 35.0514 260.396 32.9946C260.396 31.0639 259.881 29.4511 258.854 28.1592C257.743 26.7699 256.225 26.0738 254.298 26.0738C252.431 26.0738 250.948 26.7785 249.854 28.1821C248.825 29.497 248.313 31.147 248.313 33.1321Z" fill="black"/>
</g>
</g>
</g>
</svg>
