<svg width="251" height="150" viewBox="0 0 251 150" fill="none" xmlns="http://www.w3.org/2000/svg">
<path d="M99.5738 79.7345H92.0281V72.2292H99.5738V79.7345Z" fill="#112F59"/>
<path d="M109.242 79.7345H101.697V72.2292H109.242V79.7345Z" fill="#112F59"/>
<path d="M99.5738 89.1146H92.0281V81.6094H99.5738V89.1146Z" fill="#112F59"/>
<path d="M109.242 89.1146H101.697V81.6094H109.242V89.1146Z" fill="#112F59"/>
<mask id="mask0_716_2845" style="mask-type:luminance" maskUnits="userSpaceOnUse" x="17" y="104" width="217" height="8">
<path d="M17.8967 104H233.255V111.318H17.8967V104Z" fill="white"/>
</mask>
<g mask="url(#mask0_716_2845)">
<path d="M233.252 111.273H17.8967V104.005H233.252V111.273Z" fill="#112F59"/>
</g>
<path d="M100.635 46.8879L139.974 95.2655H134.604L100.635 53.7655V46.8879Z" fill="#D3D2D2"/>
<path d="M138.46 24.1199L177.802 72.4975H172.429L138.46 30.9975V24.1199Z" fill="#D3D2D2"/>
<path d="M106.359 35.599L100.635 28.6328V42.5677L143.912 95.2656H155.356L106.359 35.599Z" fill="#112F59"/>
<path d="M45.9148 95.2656H57.3562L100.635 42.5677V28.6328L45.9148 95.2656Z" fill="#18427B"/>
<mask id="mask1_716_2845" style="mask-type:luminance" maskUnits="userSpaceOnUse" x="113" y="5" width="26" height="38">
<path d="M113.787 5.81763H138.552V42.6666H113.787V5.81763Z" fill="white"/>
</mask>
<g mask="url(#mask1_716_2845)">
<path d="M113.967 35.1744L119.688 42.1432L138.037 19.7994V5.8645L113.967 35.1744Z" fill="#18427B"/>
</g>
<mask id="mask2_716_2845" style="mask-type:luminance" maskUnits="userSpaceOnUse" x="137" y="5" width="56" height="68">
<path d="M137.883 5.81763H192.768V72.6666H137.883V5.81763Z" fill="white"/>
</mask>
<g mask="url(#mask2_716_2845)">
<path d="M178.853 55.565V37.4114H170.28V45.1249L143.76 12.8333L138.037 5.8645V19.7994L181.313 72.4973H192.757L178.853 55.565Z" fill="#112F59"/>
</g>
<mask id="mask3_716_2845" style="mask-type:luminance" maskUnits="userSpaceOnUse" x="52" y="120" width="149" height="30">
<path d="M200.131 120.667H52.8774V150H200.131V120.667Z" fill="white"/>
</mask>
<g mask="url(#mask3_716_2845)">
<path d="M61.316 141.525C60.9447 141.476 59.993 141.452 58.4609 141.452H58.0844V128.692H55.794C55.109 128.692 54.7063 128.728 54.5808 128.796C54.4606 128.866 54.3664 128.926 54.2985 128.973L54.2671 128.963V126.015L54.2985 125.973C54.5547 126.056 55.2423 126.098 56.3588 126.098H63.6273C64.3019 126.098 64.7045 126.067 64.83 126.004C64.9555 125.937 65.0522 125.874 65.1228 125.817L65.1542 125.827V128.786L65.1228 128.817C64.864 128.734 64.1764 128.692 63.0625 128.692H61.316V141.525Z" fill="black"/>
<path d="M70.1189 126.056C70.8928 126.085 71.3582 126.098 71.5203 126.098H72.357C72.7596 126.098 73.0891 126.072 73.3401 126.015L73.3296 141.452H70.1189V126.056Z" fill="black"/>
<path d="M82.9283 141.525C82.557 141.476 81.8432 141.452 80.7843 141.452H79.8535V126.056C80.3477 126.085 80.8915 126.098 81.485 126.098C82.0838 126.098 82.5047 126.072 82.7505 126.015L86.641 132.598L90.3851 126.015C90.6361 126.072 91.1067 126.098 91.7969 126.098C92.4924 126.098 93.0885 126.085 93.5853 126.056V141.452H92.6545C91.6008 141.452 90.8871 141.476 90.5106 141.525V131.181L86.7246 137.931L82.9283 131.723V141.525Z" fill="black"/>
<path d="M99.8503 141.452C99.8922 141.189 99.9131 140.905 99.9131 140.598V126.098H102.235L108.374 135.723V126.89C108.374 126.468 108.335 126.202 108.259 126.098H111.386C111.344 126.411 111.323 126.752 111.323 127.119V141.452H108.918L102.873 132.213V141.452H99.8503Z" fill="black"/>
<path d="M120.732 141.525C119.984 141.476 119.103 141.452 118.086 141.452H117.72V126.046C118.193 126.082 118.53 126.098 118.734 126.098H119.215C119.822 126.098 120.326 126.072 120.732 126.015V132.16H126.17V126.046C126.811 126.082 127.436 126.098 128.042 126.098C128.649 126.098 129.028 126.072 129.182 126.015V141.525C128.811 141.476 128.079 141.452 126.986 141.452H126.17V134.931H120.732V141.525Z" fill="black"/>
<path d="M136.641 141.546C135.977 141.484 135.2 141.452 134.309 141.452H133.399L138.44 127.379C138.662 126.754 138.774 126.39 138.774 126.286C138.774 126.181 138.769 126.116 138.764 126.088L138.774 126.067C139.276 126.088 139.81 126.098 140.374 126.098C140.835 126.098 141.389 126.093 142.037 126.077L142.048 126.098C142.032 126.135 142.027 126.179 142.027 126.234C142.027 126.379 142.142 126.77 142.372 127.4L147.517 141.484C147.363 141.476 147.183 141.473 146.974 141.473C146.974 141.473 146.775 141.465 146.377 141.452C146.181 141.452 146.006 141.452 145.855 141.452H144.056L142.968 138.129H137.728L136.641 141.546ZM142.069 135.359L140.312 129.994L138.607 135.359H142.069Z" fill="black"/>
<path d="M157.057 141.525C156.686 141.476 155.734 141.452 154.202 141.452H153.825V128.692H151.535C150.85 128.692 150.447 128.728 150.322 128.796C150.202 128.866 150.107 128.926 150.039 128.973L150.008 128.963V126.015L150.039 125.973C150.296 126.056 150.983 126.098 152.1 126.098H159.368C160.043 126.098 160.445 126.067 160.571 126.004C160.696 125.937 160.793 125.874 160.864 125.817L160.895 125.827V128.786L160.864 128.817C160.605 128.734 159.917 128.692 158.804 128.692H157.057V141.525Z" fill="black"/>
<path d="M170.482 135.484C170.252 135.499 170.004 135.504 169.74 135.504C169.473 135.504 169.084 135.489 168.568 135.452V141.452H165.504V126.025C166.584 125.887 167.912 125.817 169.489 125.817C171.635 125.817 173.235 126.213 174.289 127.004C175.34 127.791 175.868 129.004 175.868 130.65C175.868 131.929 175.387 133.023 174.425 133.931C174.104 134.223 173.74 134.478 173.337 134.692L175.701 139.65C176.161 140.679 176.512 141.286 176.757 141.473L176.705 141.536C175.952 141.411 174.773 141.416 173.17 141.546L170.482 135.484ZM169.708 128.536C169.311 128.536 168.929 128.556 168.568 128.598V133.004C168.945 133.062 169.387 133.088 169.897 133.088C170.412 133.088 170.841 133.043 171.183 132.952C171.531 132.864 171.834 132.728 172.093 132.546C172.642 132.137 172.919 131.525 172.919 130.713C172.919 129.895 172.632 129.317 172.062 128.984C171.523 128.687 170.739 128.536 169.708 128.536Z" fill="black"/>
<path d="M182.695 139.629C181.997 138.963 181.442 138.161 181.032 137.223C180.627 136.28 180.425 135.249 180.425 134.129C180.425 133.012 180.614 131.952 180.99 130.952C181.372 129.952 181.913 129.072 182.611 128.306C183.314 127.543 184.164 126.939 185.163 126.494C186.159 126.043 187.276 125.817 188.51 125.817C190.643 125.817 192.442 126.489 193.906 127.827C195.459 129.26 196.238 131.189 196.238 133.619C196.238 135.973 195.436 137.931 193.833 139.494C192.842 140.452 191.663 141.114 190.298 141.473C189.629 141.653 188.844 141.744 187.945 141.744C187.045 141.744 186.12 141.559 185.173 141.192C184.224 140.817 183.398 140.296 182.695 139.629ZM183.646 133.973C183.646 134.689 183.764 135.348 184.002 135.952C184.245 136.551 184.58 137.064 185.006 137.494C185.905 138.405 187.066 138.859 188.489 138.859C189.84 138.859 190.928 138.426 191.752 137.556C192.58 136.655 192.996 135.426 192.996 133.869C192.996 132.411 192.599 131.192 191.804 130.213C190.946 129.166 189.77 128.64 188.28 128.64C186.836 128.64 185.688 129.171 184.839 130.234C184.044 131.228 183.646 132.473 183.646 133.973Z" fill="black"/>
</g>
</svg>
